<svg xmlns="http://www.w3.org/2000/svg" height="16px" width="16px"  viewBox="0 0 16 16"><title>icon-dashboard</title><path d="M8,0a8,8,0,1,0,8,8A8,8,0,0,0,8,0Zm3.889,10.8c-.007.009,0,.021-.012.029L9.725,12.982a.351.351,0,0,1-.495,0l-.212-.212a.351.351,0,0,1,0-.495L10.293,11H4.5a.5.5,0,0,1,0-1h5.793L9.018,8.725a.351.351,0,0,1,0-.495l.212-.212a.349.349,0,0,1,.495,0l2.129,2.128h0l.023.023c.008.008,0,.02.012.029a.486.486,0,0,1,.111.3A.492.492,0,0,1,11.889,10.8ZM11.5,6H5.707L6.982,7.277a.351.351,0,0,1,0,.5l-.212.212a.351.351,0,0,1-.495,0L4.146,5.856h0l-.023-.023c-.008-.008,0-.02-.012-.029A.486.486,0,0,1,4,5.5a.492.492,0,0,1,.111-.3c.007-.009,0-.021.012-.029L6.275,3.02a.349.349,0,0,1,.495,0l.212.212a.351.351,0,0,1,0,.495L5.707,5H11.5a.5.5,0,0,1,0,1Z" fill="#fff"/></svg>